PathFileType	4	(X/Y/Z)	..\data\2014053\dynamic\2014053_C4_04.trc
DataRate	CameraRate	NumFrames	NumMarkers	Units	OrigDataRate	OrigDataStartFrame	OrigNumFrames
100.000000	100.000000	4	52	mm	100.000000	90	181
Frame#	Time	L_IAS			L_IPS			R_IPS			R_IAS			L_FTC			L_FLE			L_FME			L_FAX			L_TTC			L_FAL			L_TAM			L_FCC			L_FM1			L_FM2			L_FM5			R_FTC			R_FLE			R_FME			R_FAX			R_TTC			R_FAL			R_TAM			R_FCC			R_FM1			R_FM2			R_FM5			CV7			TV10			SXS			SJN			L_SIA			L_SRS			L_SAA			L_SAE			L_HLE			L_HME			L_UOA			L_RSP			L_UHE			L_HM2			L_HM5			R_SIA			R_SRS			R_SAA			R_SAE			R_HLE			R_HME			R_UOA			R_RSP			R_UHE			R_HM2			R_HM5			
		X1	Y1	Z1	X2	Y2	Z2	X3	Y3	Z3	X4	Y4	Z4	X5	Y5	Z5	X6	Y6	Z6	X7	Y7	Z7	X8	Y8	Z8	X9	Y9	Z9	X10	Y10	Z10	X11	Y11	Z11	X12	Y12	Z12	X13	Y13	Z13	X14	Y14	Z14	X15	Y15	Z15	X16	Y16	Z16	X17	Y17	Z17	X18	Y18	Z18	X19	Y19	Z19	X20	Y20	Z20	X21	Y21	Z21	X22	Y22	Z22	X23	Y23	Z23	X24	Y24	Z24	X25	Y25	Z25	X26	Y26	Z26	X27	Y27	Z27	X28	Y28	Z28	X29	Y29	Z29	X30	Y30	Z30	X31	Y31	Z31	X32	Y32	Z32	X33	Y33	Z33	X34	Y34	Z34	X35	Y35	Z35	X36	Y36	Z36	X37	Y37	Z37	X38	Y38	Z38	X39	Y39	Z39	X40	Y40	Z40	X41	Y41	Z41	X42	Y42	Z42	X43	Y43	Z43	X44	Y44	Z44	X45	Y45	Z45	X46	Y46	Z46	X47	Y47	Z47	X48	Y48	Z48	X49	Y49	Z49	X50	Y50	Z50	X51	Y51	Z51	X52	Y52	Z52	

91	0.9	844.9459228515627	951.0086669921877	-276.4481811523438	644.8770751953126	979.6276855468752	-189.559555053711	659.1095581054689	984.1712646484377	-86.52685546875001	869.6230468750002	964.0609130859377	-52.72706985473634	763.9564208984376	875.634460449219	-345.2740783691407	875.197448730469	490.4075012207032	-326.0030212402344	893.6694946289065	484.311004638672	-190.3678283691407	838.8074951171877	448.8580932617189	-329.8331909179688	893.4592285156252	402.2548828125001	-275.2326354980469	594.9389038085939	198.2410430908204	-296.4253540039063	620.3187866210939	188.3396759033203	-212.7140808105469	531.4751586914064	193.6604766845704	-237.8487854003907	655.8879394531251	62.25947952270509	-188.6758117675782	674.1675415039064	69.84007263183595	-244.5043640136719	637.1814575195314	73.03220367431642	-296.8860168457032	812.9731445312502	890.499694824219	39.41050338745118	836.7893066406252	492.7521362304689	-36.21214675903321	797.4514770507815	483.9597778320314	-169.3769226074219	810.9805908203127	428.8369140625001	-34.47856903076173	863.9280395507815	411.5186767578126	-105.2662658691407	784.9458007812502	60.0179901123047	-87.10877227783205	793.799011230469	76.49958801269533	-174.2237701416016	732.3695678710939	17.67860984802246	-145.8677215576172	920.724792480469	23.17376136779786	-191.898666381836	937.826110839844	37.74510192871094	-139.5546264648438	903.6335449218752	20.10535430908203	-75.59848785400392	686.2164306640626	1454.56884765625	-160.141342163086	647.4112548828126	1222.9443359375	-156.1245880126953	857.132995605469	1178.750366210938	-181.7813415527344	798.7913818359377	1387.113647460938	-174.4768524169922	619.9541015625001	1270.79736328125	-241.9699249267579	637.5291137695314	1394.63818359375	-245.9709625244141	690.7969360351564	1393.25390625	-348.6481323242188	734.2145385742189	1399.16455078125	-355.2009887695313	702.1910400390626	1080.219970703125	-390.5400695800782	697.4248046875001	1069.828002929688	-307.9442443847657	677.9537963867189	1046.85498046875	-348.9128112792969	818.9844360351565	853.0634765625002	-369.4287719726563	762.4642944335939	854.555603027344	-415.1112060546876	847.996765136719	771.4050903320315	-378.5398559570313	761.1323242187501	774.916198730469	-413.3489379882814	635.7565917968751	1266.92919921875	-58.16275787353517	657.0961914062501	1390.26806640625	-65.1673049926758	728.0491333007814	1395.95068359375	14.52640438079834	775.8837890625002	1394.8701171875	24.85328102111817	738.3854370117189	1082.4697265625	76.94612121582033	726.5386962890626	1068.727905273438	-3.220999717712403	709.7120361328126	1048.338012695313	40.1411361694336	860.1358032226565	854.7422485351565	78.75061798095705	795.2207641601565	856.379577636719	110.8844299316407	889.2476196289065	768.5141601562502	87.62415313720705	795.4835205078127	775.7968750000002	111.9735717773438	
92	0.91	855.2519531250002	951.8975830078127	-275.3522949218751	654.6975097656251	981.111755371094	-189.9300842285157	668.3504638671876	985.2766723632815	-86.93178558349611	878.6607666015627	963.8181762695315	-51.24353408813478	774.5061645507815	876.8078613281252	-344.9926757812501	893.3034667968752	493.552947998047	-325.9645385742188	911.3662719726565	488.1243896484376	-190.4051055908203	857.858825683594	450.948944091797	-329.5340576171876	913.843933105469	405.8713378906251	-274.9815063476563	621.7529907226564	192.8248291015626	-296.5905151367188	647.2513427734376	183.5574340820313	-213.0443267822266	557.7695312500001	185.195053100586	-238.1692810058594	689.0099487304689	59.04188919067384	-190.5765838623047	706.7941284179689	68.32781219482423	-246.2590484619141	669.5317993164064	70.17736816406251	-298.5480041503907	819.6627197265627	889.8342285156252	40.1306266784668	839.6411743164065	492.3379211425782	-35.01344680786134	801.6676025390627	483.6320190429689	-168.6497192382813	813.7518310546877	428.636688232422	-33.73960876464844	866.5885009765627	410.9434509277345	-104.3677673339844	785.0579833984377	60.03049850463869	-87.14511108398439	793.8525390625002	76.4129104614258	-174.2530059814453	732.3381958007814	17.74937438964844	-145.9158020019532	920.7636718750002	23.20183753967286	-191.6490936279297	937.975280761719	37.64396286010743	-139.3127136230469	903.6022949218752	19.86954307556153	-75.29824066162111	696.2144775390626	1455.0654296875	-159.64453125	657.1894531250001	1223.52587890625	-155.5160675048828	866.655700683594	1179.329833984375	-181.5407104492188	808.7316894531252	1387.629272460938	-174.4337921142578	629.5798950195314	1271.214599609375	-241.0222167968751	647.1751708984376	1395.006713867188	-245.1417541503907	699.7069702148439	1393.99072265625	-348.0262145996094	743.0247192382814	1399.835205078125	-354.9764404296876	709.2719116210939	1081.182861328125	-390.6794433593751	704.9498901367189	1070.65966796875	-308.0175170898438	685.1264038085939	1047.755004882813	-348.9940490722657	825.8438110351565	853.7639770507815	-370.6046447753907	769.032897949219	855.410583496094	-415.9048156738282	855.1058349609377	772.2720336914065	-380.4182739257813	767.8031005859376	775.697937011719	-414.3616638183595	646.1356811523439	1267.741577148438	-57.21075439453126	667.3823242187501	1391.02099609375	-64.50490570068361	738.7175903320314	1397.002563476563	15.09073925018311	786.663513183594	1396.065185546875	24.86313247680665	751.9925537109376	1083.317993164063	77.97138977050783	739.0388183593751	1069.374145507813	-2.030122518539429	722.9226074218751	1048.789306640625	41.62609863281251	876.7764282226565	857.1942138671877	78.26660919189455	811.7348632812502	858.1106567382815	111.2614974975586	907.422302246094	771.4696044921877	87.18414306640626	813.772644042969	777.4161376953127	112.7340927124024	
93	0.92	865.5808715820315	952.5712890625002	-274.1838684082032	664.5479125976564	982.1627197265627	-190.5077362060547	677.5082397460939	986.094177246094	-87.47693634033205	887.6123657226565	963.4085083007815	-49.72640609741212	785.4194335937502	877.7500000000002	-344.8038024902344	910.9556274414065	496.5378723144532	-325.7236328125001	928.4598388671877	491.7144470214845	-190.2993316650391	876.4014282226565	452.7843017578126	-329.0743408203126	933.8079833984377	409.3716735839845	-274.5427551269532	649.1433715820314	186.6356811523438	-296.6468505859376	674.8457641601564	178.0128173828125	-213.3061676025391	584.8607788085939	175.8366851806641	-238.406967163086	722.8956298828126	55.5234832763672	-192.4632873535157	740.0440063476564	66.45188903808595	-247.9891662597657	702.5078125000001	66.8979949951172	-300.1557312011719	826.2204589843752	889.1009521484377	40.86151123046876	842.649108886719	491.8885803222657	-33.94249725341798	806.104919433594	483.2774353027345	-168.0594482421875	816.6221923828127	428.4016723632814	-33.13935470581055	869.4024047851565	410.2989196777345	-103.5270004272461	785.177429199219	60.05006027221681	-87.21237182617189	793.9297485351565	76.31572723388673	-174.31787109375	732.3474121093751	17.80591773986817	-146.0079498291016	920.8057861328127	23.23511695861817	-191.3967742919922	938.1583251953127	37.5550765991211	-139.0553741455078	903.562927246094	19.63732528686524	-74.97878265380861	706.2250366210939	1455.437377929688	-159.1544799804688	666.9717407226564	1223.936401367188	-154.9623718261719	876.2400512695315	1179.762451171875	-181.2026519775391	818.670349121094	1388.01318359375	-174.3508605957032	639.2960815429689	1271.437377929688	-240.1535797119141	656.8665161132814	1395.203369140625	-244.3765258789063	708.6834106445314	1394.5830078125	-347.4306945800782	751.9340820312501	1400.364990234375	-354.7480468750001	716.3703613281251	1082.003540039063	-390.8684387207032	712.4658203125001	1071.35205078125	-308.1544799804688	692.3137207031251	1048.5107421875	-349.1325073242188	832.7779541015627	854.3619384765627	-371.8581237792969	775.6592407226565	856.149353027344	-416.7492065429689	862.326599121094	773.0675048828127	-382.4171142578126	774.5562133789065	776.3338623046877	-415.3807373046876	656.4400024414064	1268.3798828125	-56.37216186523439	677.5511474609376	1391.620727539063	-63.92687606811525	749.2010498046876	1397.881103515625	15.60573101043702	797.281433105469	1397.075927734375	24.85654449462891	765.5279541015626	1084.014526367188	78.97635650634767	751.5533447265626	1069.872924804688	-0.8576762676239016	736.1658935546876	1049.071044921875	43.07995986938477	893.3994750976565	859.6424560546877	77.70371246337892	828.3471679687502	859.764343261719	111.543083190918	925.5220947265627	774.3838500976565	86.47605895996095	832.0578613281252	778.9771118164065	113.2339172363282	
94	0.93	875.9338989257815	953.0369873046877	-272.9780273437501	674.4235229492189	982.7383422851565	-191.281005859375	686.5873413085939	986.583190917969	-88.1593475341797	896.4818115234377	962.8582153320315	-48.21115875244142	796.682556152344	878.4692382812502	-344.7065429687501	928.1264648437502	499.3320617675782	-325.2946777343751	944.902526855469	495.0219116210939	-190.0503540039063	894.4050903320315	454.3439025878907	-328.4620056152344	953.3041992187502	412.722625732422	-273.9452209472657	677.0792846679689	179.7826385498047	-296.5783691406251	703.1086425781251	171.7985534667969	-213.4875640869141	612.7916259765626	165.6987762451172	-238.5259399414063	757.5328979492189	51.80772018432619	-194.3543548583985	773.8748168945315	64.31147766113283	-249.7314910888672	736.0431518554689	63.32308197021486	-301.7303466796876	832.7434692382815	888.3353271484377	41.57108306884766	845.8610839843752	491.3985290527345	-33.04039382934571	810.7473754882815	482.9125976562501	-167.6267547607422	819.6160278320315	428.1262512207032	-32.70327377319337	872.3980712890627	409.5782775878907	-102.7848892211914	785.303649902344	60.07320022583009	-87.3164749145508	794.023620605469	76.2025604248047	-174.4268493652344	732.3916015625001	17.84747123718262	-146.1453857421875	920.849304199219	23.25679397583008	-191.1553039550782	938.3745117187502	37.46785736083985	-138.7934875488282	903.516784667969	19.40924263000489	-74.65407562255861	716.2569580078126	1455.688598632813	-158.6769104003907	676.7575683593751	1224.182250976563	-154.4682159423828	885.8864746093752	1180.021240234375	-180.7784271240235	828.6185302734377	1388.255004882813	-174.228744506836	649.0946044921876	1271.477905273438	-239.3681945800782	666.6127319335939	1395.24072265625	-243.680160522461	717.7368774414064	1395.022094726563	-346.8732299804688	760.9677124023439	1400.738647460938	-354.5162048339844	723.5332641601564	1082.663208007813	-391.0957336425782	720.0028076171876	1071.887817382813	-308.3467407226563	699.5523071289064	1049.112060546875	-349.3189392089844	839.7860107421877	854.8221435546877	-373.1590270996094	782.3488769531252	856.746032714844	-417.6224365234376	869.6299438476565	773.747985839844	-384.4950256347657	781.375427246094	776.8010864257815	-416.3793029785157	666.6627197265626	1268.849975585938	-55.64162063598634	687.6267089843751	1392.075073242188	-63.42185592651369	759.5288085937501	1398.579345703125	16.0762939453125	807.765808105469	1397.865112304688	24.83842086791993	778.973571777344	1084.534912109375	79.96760559082033	764.0609130859376	1070.1953125	0.3014351725578309	749.4205932617189	1049.162841796875	44.50894927978516	909.9880371093752	862.0664062500002	77.0576629638672	845.0784912109377	861.3120727539065	111.7259979248047	943.5427246093752	777.2518310546877	85.51102447509767	850.3299560546877	780.4497070312502	113.4675750732422	
